<svg version="1.1" preserveAspectRatio="none" xmlns="http://www.w3.org/2000/svg" width="500" height="500" viewBox="0 0 500 500"><rect width="100%" height="100%" fill="#3B3B3B" fill-opacity="1"/><svg viewBox="40.5246 200.7714 392.3934 176" width="333" height="149.36031034161127" x="83.5px" y="175.3198px" xmlns="http://www.w3.org/2000/svg" xmlns:xlink="http://www.w3.org/1999/xlink" preserveAspectRatio="none"><defs></defs><style>.aIptOCySncolors-3 {fill:#161616;fill-opacity:1;}.aIptOCySncolors-4 {fill:#F7F7F7;fill-opacity:1;}.aIptOCySncolors-5 {fill:#EDF577;fill-opacity:1;}.aIptOCySncolors-6 {fill:#C4C4C4;fill-opacity:1;}.aIptOCySncolors-7 {fill:#555555;fill-opacity:1;}.companyName {fill:#F7F7F7;fill-opacity:1;}.icon1 {fill:#FFCC57;fill-opacity:1;}.icon2 {fill:#EF802F;fill-opacity:1;}.icon3 {fill:#DB5192;fill-opacity:1;}.icon3-str {stroke:#DB5192;stroke-opacity:1;}</style><g opacity="1" transform="rotate(0 40.5246 200.7714)">
<svg width="96.4728" height="120" x="40.5246" y="200.7714" version="1.1" preserveAspectRatio="none" viewBox="58.311161041259766 9.930354118347168 395.43560791015625 491.87213134765625">
  <g transform="matrix(1 0 0 1 0 0)" class="icon1"><title>Cinema Direction</title><g><path d="M202.4,84l33.3,4.8l14.9,30.2c1.5,3,5.1,4.2,8,2.7c1.2-0.6,2.1-1.5,2.7-2.7l14.9-30.2l33.3-4.8c3.3-0.5,5.6-3.5,5.1-6.8   c-0.2-1.3-0.8-2.5-1.8-3.4l-24.1-23.5l5.7-33.2c0.6-3.3-1.6-6.4-4.9-6.9c-1.3-0.2-2.6,0-3.8,0.6L256,26.3l-29.8-15.7   c-2.9-1.5-6.6-0.4-8.1,2.5c-0.6,1.2-0.8,2.5-0.6,3.8l5.7,33.2L199,73.7c-1.6,1.6-2.2,4-1.5,6.2C198.2,82,200.1,83.6,202.4,84z    M233.8,56.6c1.4-1.4,2.1-3.4,1.7-5.3l-4.2-24.3l21.9,11.5c1.7,0.9,3.8,0.9,5.6,0l21.9-11.5l-4.2,24.3c-0.3,1.9,0.3,3.9,1.7,5.3   l17.7,17.2l-24.4,3.6c-2,0.3-3.6,1.5-4.5,3.3L256,102.8l-10.9-22.1c-0.9-1.8-2.6-3-4.5-3.3l-24.4-3.5L233.8,56.6z"></path><path d="M119.7,175.1c1.2-0.6,2.1-1.5,2.7-2.7l14.9-30.2l33.3-4.8c3.3-0.5,5.6-3.5,5.1-6.8c-0.2-1.3-0.8-2.5-1.7-3.4l-24.1-23.5   l5.7-33.2c0.6-3.3-1.6-6.4-4.9-6.9c-1.3-0.2-2.6,0-3.8,0.6L117,79.7L87.2,64.1c-2.9-1.5-6.6-0.4-8.1,2.5c-0.6,1.2-0.8,2.5-0.6,3.8   l5.7,33.2l-24.1,23.5c-1.6,1.6-2.2,4-1.5,6.2c0.7,2.2,2.6,3.8,4.8,4.1l33.3,4.8l14.9,30.2C113.1,175.4,116.7,176.6,119.7,175.1z    M101.6,130.8l-24.4-3.6L94.8,110c1.4-1.4,2.1-3.4,1.7-5.3l-4.2-24.3l21.9,11.5c1.7,0.9,3.8,0.9,5.6,0l21.9-11.5l-4.2,24.3   c-0.3,1.9,0.3,3.9,1.7,5.3l17.7,17.2l-24.4,3.6c-2,0.3-3.6,1.5-4.5,3.3L117,156.2l-10.9-22.1C105.2,132.3,103.6,131.1,101.6,130.8z   "></path><path d="M453.7,130.5c-0.2-1.3-0.8-2.5-1.7-3.4l-24.1-23.5l5.7-33.2c0.6-3.3-1.6-6.4-4.9-6.9c-1.3-0.2-2.6,0-3.8,0.6L395,79.7   l-29.8-15.7c-2.9-1.5-6.6-0.4-8.1,2.5c-0.6,1.2-0.8,2.5-0.6,3.8l5.7,33.2L338,127.1c-1.6,1.6-2.2,4-1.5,6.2   c0.7,2.2,2.6,3.8,4.8,4.1l33.3,4.8l14.9,30.2c1.5,3,5.1,4.2,8,2.7c1.2-0.6,2.1-1.5,2.7-2.7l14.9-30.2l33.3-4.8   C451.9,136.9,454.1,133.8,453.7,130.5z M410.4,130.8c-2,0.3-3.6,1.5-4.5,3.3L395,156.2L384,134c-0.9-1.8-2.6-3-4.5-3.3l-24.4-3.6   l17.7-17.2c1.4-1.4,2.1-3.4,1.7-5.3l-4.2-24.3l21.9,11.5c1.7,0.9,3.8,0.9,5.6,0l21.9-11.5l-4.2,24.3c-0.3,1.9,0.3,3.9,1.7,5.3   l17.7,17.2L410.4,130.8z"></path><path d="M398.5,215.4c-0.5,0-1.1,0.1-1.6,0.2l-27.5,7.7c-5.7,1.6-10,6.2-11.1,12l-52.5,29.3v-23.1c12.6-11,19.8-26.9,19.8-43.5   c0-32-25.9-58-57.9-58c-32,0-58,25.9-58,57.9c0,10.7,3,21.2,8.6,30.3h-17.6c6-18.5-4.2-38.3-22.7-44.3c-18.5-6-38.3,4.2-44.3,22.7   c-2.3,7-2.3,14.6,0,21.7c-13.5,0.7-24.1,11.9-24.1,25.4v76.9c0,14.1,11.4,25.4,25.5,25.5h33.8c2.8,16,16.4,27.9,32.7,28.6v17.9   c-10.2,2-18.6,9-22.6,18.6l-33.4,71.4c-1.4,3,0,6.6,3,7.9c3,1.4,6.5,0.1,7.9-2.9l33.4-71.6c0-0.1,0.1-0.2,0.1-0.3   c2.1-5.1,6.3-9.1,11.6-10.9v80.9c0,3.3,2.7,6,6,6c3.3,0,6-2.7,6-6v-81.1c5.4,1.7,9.8,5.7,11.9,11c0,0.1,0.1,0.2,0.1,0.3l33.8,72.4   c1.4,3,4.9,4.3,7.9,3s4.3-4.9,3-7.9c0,0,0-0.1,0-0.1l-33.7-72.3c-4-9.7-12.7-16.7-23-18.7v-17.8c16.4-0.5,30.2-12.5,33-28.6h33.8   c14.1,0,25.4-11.4,25.5-25.5v-10.9l52.5,29.3c1.2,5.8,5.5,10.4,11.1,12l27.5,7.7c3.2,0.9,6.5-1,7.4-4.2c0.1-0.5,0.2-1.1,0.2-1.6   V221.4C404.5,218.1,401.8,215.4,398.5,215.4z M167.1,194.3L167.1,194.3c12.8,0,23.2,10.4,23.2,23.2c0,12.8-10.4,23.2-23.2,23.2   c-12.8,0-23.2-10.4-23.2-23.2C143.9,204.7,154.3,194.3,167.1,194.3z M212.3,372.8h-9.4c-10.2,0-19.1-6.8-21.9-16.7h53.1   C231.4,365.9,222.5,372.8,212.3,372.8z M293.7,274.9v55.8c0,7.4-6,13.4-13.5,13.5H134.9c-7.4,0-13.4-6-13.5-13.5v-76.9   c0-7.4,6-13.4,13.5-13.5h5.4c12.6,14.8,34.7,16.6,49.5,4c1.4-1.2,2.8-2.6,4-4H228c17.7,16.7,44,20.4,65.7,9.4V274.9z M267.5,244   c-25.4,0-45.9-20.6-45.9-45.9c0-25.4,20.6-45.9,45.9-45.9c25.4,0,45.9,20.6,45.9,45.9S292.9,244,267.5,244z M357.9,335.1L305.7,306   v-27.6l52.2-29.1V335.1z M392.5,355.1l-19.9-5.6c-1.6-0.5-2.7-1.9-2.7-3.6l0-107.3c0-1.7,1.1-3.1,2.7-3.6l19.9-5.6V355.1z"></path><path d="M267.5,174.5c-13,0-23.6,10.5-23.6,23.6c0,13,10.6,23.5,23.6,23.6c13,0,23.6-10.5,23.6-23.6S280.5,174.5,267.5,174.5z    M267.5,209.6c-6.4,0-11.6-5.2-11.6-11.6c0-6.4,5.2-11.6,11.6-11.6c6.4,0,11.6,5.2,11.6,11.6C279.1,204.4,273.9,209.6,267.5,209.6z   "></path><path d="M230.5,283.5H179c-3.3,0-6,2.7-6,6s2.7,6,6,6h51.6c3.3,0,6-2.7,6-6S233.9,283.5,230.5,283.5z"></path></g></g>
</svg>
</g><g opacity="1" transform="rotate(0 40.5246 344.7714)">
<svg width="392.3934" height="32" x="40.5246" y="344.7714" version="1.1" preserveAspectRatio="none" viewBox="0.08 -28.64 359.04 29.28">
  <g transform="matrix(1 0 0 1 0 0)" class="companyName"><path id="id-D6z1nYkh14" d="M25.56-14.40Q27.36-13.60 28.34-12.22Q29.32-10.84 29.32-8.92L29.32-8.92Q29.32-4.48 25.66-2.24Q22 0 16.24 0L16.24 0L0.08 0L5.68-28L20.52-28Q25.44-28 28-26.26Q30.56-24.52 30.56-21.32L30.56-21.32Q30.56-18.96 29.24-17.18Q27.92-15.40 25.56-14.40L25.56-14.40ZM18.24-21.40L13.64-21.40L12.80-17.24L17.60-17.24Q20.72-17.24 20.72-19.68L20.72-19.68Q20.72-20.52 20.08-20.96Q19.44-21.40 18.24-21.40L18.24-21.40ZM16.76-6.60Q18.20-6.60 19.08-7.26Q19.96-7.92 19.96-9.16L19.96-9.16Q19.96-10.04 19.30-10.52Q18.64-11 17.64-11L17.64-11L11.56-11L10.68-6.60L16.76-6.60Z M46.76 0.64Q42.48 0.64 39.26-0.94Q36.04-2.52 34.30-5.36Q32.56-8.20 32.56-11.88L32.56-11.88Q32.56-16.76 34.82-20.58Q37.08-24.40 41.10-26.52Q45.12-28.64 50.20-28.64L50.20-28.64Q54.48-28.64 57.70-27.06Q60.92-25.48 62.66-22.64Q64.40-19.80 64.40-16.12L64.40-16.12Q64.40-11.24 62.14-7.42Q59.88-3.60 55.86-1.48Q51.84 0.64 46.76 0.64L46.76 0.64ZM47.56-7Q49.80-7 51.46-8.16Q53.12-9.32 54-11.28Q54.88-13.24 54.88-15.56L54.88-15.56Q54.88-18.04 53.42-19.52Q51.96-21 49.40-21L49.40-21Q47.16-21 45.50-19.84Q43.84-18.68 42.96-16.72Q42.08-14.76 42.08-12.44L42.08-12.44Q42.08-9.96 43.54-8.48Q45-7 47.56-7L47.56-7Z M80.68 0.64Q76.40 0.64 73.18-0.94Q69.96-2.52 68.22-5.36Q66.48-8.20 66.48-11.88L66.48-11.88Q66.48-16.76 68.74-20.58Q71-24.40 75.02-26.52Q79.04-28.64 84.12-28.64L84.12-28.64Q88.40-28.64 91.62-27.06Q94.84-25.48 96.58-22.64Q98.32-19.80 98.32-16.12L98.32-16.12Q98.32-11.24 96.06-7.42Q93.80-3.60 89.78-1.48Q85.76 0.64 80.68 0.64L80.68 0.64ZM81.48-7Q83.72-7 85.38-8.16Q87.04-9.32 87.92-11.28Q88.80-13.24 88.80-15.56L88.80-15.56Q88.80-18.04 87.34-19.52Q85.88-21 83.32-21L83.32-21Q81.08-21 79.42-19.84Q77.76-18.68 76.88-16.72Q76-14.76 76-12.44L76-12.44Q76-9.96 77.46-8.48Q78.92-7 81.48-7L81.48-7Z M133.20-28L119.16-15.24L128.28 0L117.76 0L112.08-9.12L109.44-6.68L108.12 0L98.84 0L104.44-28L113.72-28L111.72-18.08L122.36-28L133.20-28Z M175.80-28L161.76-15.24L170.88 0L160.36 0L154.68-9.12L152.04-6.68L150.72 0L141.44 0L147.04-28L156.32-28L154.32-18.08L164.96-28L175.80-28Z M172.04 0L177.64-28L187.08-28L181.48 0L172.04 0Z M218.84-28L204.68-10.16L202.68 0L193.24 0L195.28-10.28L188.28-28L197.76-28L201.56-18.32L209.36-28L218.84-28Z M233.96 0L233.04-4.88L222.36-4.88L219.56 0L209.60 0L227.44-28L236.72-28L243.36 0L233.96 0ZM226.24-11.68L231.72-11.68L230.36-18.84L226.24-11.68Z M291.24-28L277.20-15.24L286.32 0L275.80 0L270.12-9.12L267.48-6.68L266.16 0L256.88 0L262.48-28L271.76-28L269.76-18.08L280.40-28L291.24-28Z M318.08-28L303.92-10.16L301.92 0L292.48 0L294.52-10.28L287.52-28L297.00-28L300.80-18.32L308.60-28L318.08-28Z M333.20 0L332.28-4.88L321.60-4.88L318.80 0L308.84 0L326.68-28L335.96-28L342.60 0L333.20 0ZM325.48-11.68L330.96-11.68L329.60-18.84L325.48-11.68Z M346.68-10.72L348.32-28L359.12-28L353.88-10.72L346.68-10.72ZM348.72 0.40Q346.52 0.40 345.12-0.88Q343.72-2.16 343.72-4L343.72-4Q343.72-6.24 345.30-7.68Q346.88-9.12 349.28-9.12L349.28-9.12Q351.48-9.12 352.88-7.88Q354.28-6.64 354.28-4.80L354.28-4.80Q354.28-2.60 352.68-1.10Q351.08 0.40 348.72 0.40L348.72 0.40Z"/></g>
</svg>
</g></svg></svg>